<?xml version="1.0" encoding="iso-8859-1"?>
<!-- Uploaded to: SVG Repo, www.svgrepo.com, Generator: SVG Repo Mixer Tools -->
<svg height="800px" width="800px" version="1.1" id="Layer_1" xmlns="http://www.w3.org/2000/svg" xmlns:xlink="http://www.w3.org/1999/xlink" 
	 viewBox="0 0 512 512" xml:space="preserve">
<circle style="fill:#FFC61B;" cx="256" cy="256" r="256"/>
<path style="fill:#EAA22F;" d="M92.731,287.263l221.306,218.128c94.779-21.969,169.384-96.573,191.354-191.354L447.354,256
	l-123.752,73.319L92.731,287.263z"/>
<path style="fill:#FFFFFF;" d="M256,160.328c-78.248,0-147.718,37.579-191.354,95.672c43.636,58.092,113.105,95.672,191.354,95.672
	S403.718,314.092,447.354,256C403.718,197.908,334.248,160.328,256,160.328z"/>
<path style="fill:#E2E2E2;" d="M256,160.328c-0.191,0-0.383,0.009-0.574,0.009v191.326c0.191,0,0.383,0.009,0.574,0.009
	c78.25,0,147.718-37.579,191.354-95.672C403.718,197.908,334.248,160.328,256,160.328z"/>
<circle style="fill:#71E2EF;" cx="256" cy="256" r="85.333"/>
<path style="fill:#38C6D9;" d="M256,170.667c-0.193,0-0.381,0.014-0.574,0.014v170.637c0.193,0.002,0.381,0.014,0.574,0.014
	c47.128,0,85.333-38.205,85.333-85.333S303.128,170.667,256,170.667z"/>
<circle style="fill:#273B7A;" cx="256" cy="256" r="42.667"/>
<path style="fill:#121149;" d="M256,213.333c-0.193,0-0.383,0.012-0.574,0.014v85.304c0.191,0.002,0.381,0.014,0.574,0.014
	c23.564,0,42.667-19.103,42.667-42.667C298.667,232.436,279.564,213.333,256,213.333z"/>
</svg>