<?xml version="1.0" encoding="iso-8859-1"?>
<!-- Uploaded to: SVG Repo, www.svgrepo.com, Generator: SVG Repo Mixer Tools -->
<svg height="800px" width="800px" version="1.1" id="Layer_1" xmlns="http://www.w3.org/2000/svg" xmlns:xlink="http://www.w3.org/1999/xlink" 
	 viewBox="0 0 511.147 511.147" xml:space="preserve">
<g transform="translate(1 1)">
	<g>
		<path style="fill:#FFE100;" d="M134.253,312.173c-14.507-14.507-26.453-32.427-34.987-51.2l-57.173,189.44
			c-3.413,11.093,9.387,19.627,18.773,12.8l55.467-38.4c13.653-9.387,32.427-4.267,38.4,11.093l23.04,56.32
			c5.12,11.947,23.04,11.093,26.453-0.853l38.4-126.293C199.96,362.52,161.56,342.04,134.253,312.173"/>
		<path style="fill:#FFE100;" d="M49.773,7.533c0,18.773-15.36,34.133-34.133,34.133c18.773,0,34.133,15.36,34.133,34.133
			c0-18.773,15.36-34.133,34.133-34.133C65.133,41.667,49.773,26.307,49.773,7.533"/>
		<path style="fill:#FFE100;" d="M41.24,229.4c0,5.12-3.413,8.533-8.533,8.533s-8.533-3.413-8.533-8.533
			c0-5.12,3.413-8.533,8.533-8.533S41.24,224.28,41.24,229.4"/>
		<path style="fill:#FFE100;" d="M476.44,178.2c-5.12,0-8.533-3.413-8.533-8.533v-34.133c0-5.12,3.413-8.533,8.533-8.533
			s8.533,3.413,8.533,8.533v34.133C484.973,174.787,481.56,178.2,476.44,178.2z"/>
		<path style="fill:#FFE100;" d="M493.507,161.133h-34.133c-5.12,0-8.533-3.413-8.533-8.533c0-5.12,3.413-8.533,8.533-8.533h34.133
			c5.12,0,8.533,3.413,8.533,8.533C502.04,157.72,498.627,161.133,493.507,161.133z"/>
		<path style="fill:#FFE100;" d="M416.707,203.8c0,89.6-72.533,162.133-162.133,162.133S92.44,293.4,92.44,203.8
			S164.973,41.667,254.573,41.667S416.707,114.2,416.707,203.8"/>
		<path style="fill:#FFE100;" d="M409.88,260.973c-8.533,21.333-22.187,40.107-39.253,56.32
			c-26.453,27.307-63.147,45.227-103.253,48.64l38.4,125.44c3.413,12.8,21.333,12.8,26.453,0.853l23.04-56.32
			c5.973-14.507,24.747-20.48,38.4-11.093l55.467,38.4c9.387,6.827,22.187-1.707,18.773-12.8L409.88,260.973z"/>
	</g>
	<g>
		<path style="fill:#FFA800;" d="M258.84,44.227c-4.267,0-8.533,0-12.8,0.853c83.627,6.827,149.333,75.947,149.333,161.28
			S329.667,360.813,246.04,367.64c4.267,0,8.533,0.853,12.8,0.853c89.6,0,162.133-72.533,162.133-162.133
			S348.44,44.227,258.84,44.227"/>
		<path style="fill:#FFA800;" d="M472.173,452.973l-58.027-189.44c-4.267,10.24-10.24,20.48-16.213,29.867l48.64,159.573
			c0.853,2.56,0.853,5.973-0.853,7.68l6.827,5.12C462.787,472.6,475.587,464.067,472.173,452.973"/>
	</g>
	<g>
		<path style="fill:#FFFFFF;" d="M254.573,41.667c4.267,0,8.533,0,12.8,0.853C183.747,48.493,118.04,118.467,118.04,203.8
			s65.707,155.307,149.333,161.28c-4.267,0.853-8.533,0.853-12.8,0.853c-89.6,0-162.133-72.533-162.133-162.133
			S164.973,41.667,254.573,41.667"/>
		<path style="fill:#FFFFFF;" d="M42.093,450.413l57.173-189.44c4.267,10.24,10.24,20.48,16.213,29.867L67.693,450.413
			c-0.853,3.413-0.853,5.973,0,8.533l-6.827,5.12C51.48,470.04,38.68,461.507,42.093,450.413"/>
	</g>
	<path style="fill:#00DA6C;" d="M374.04,203.8c0,65.707-53.76,119.467-119.467,119.467S135.107,269.507,135.107,203.8
		s53.76-119.467,119.467-119.467S374.04,138.093,374.04,203.8"/>
	<path d="M254.573,374.467c-93.867,0-170.667-76.8-170.667-170.667s76.8-170.667,170.667-170.667S425.24,109.933,425.24,203.8
		S348.44,374.467,254.573,374.467z M254.573,50.2c-84.48,0-153.6,69.12-153.6,153.6s69.12,153.6,153.6,153.6
		s153.6-69.12,153.6-153.6S339.053,50.2,254.573,50.2z"/>
	<path d="M318.573,510.147c-10.24,0-18.773-5.973-21.333-16.213l-38.4-126.293c-0.853-2.56,0-5.12,0.853-7.68
		c1.707-2.56,3.413-3.413,5.973-3.413c37.547-2.56,71.68-18.773,98.133-46.08c17.067-15.36,29.013-33.28,37.547-52.907
		c1.707-3.413,4.267-5.12,8.533-5.12c3.413,0,6.827,2.56,7.68,5.973l57.173,189.44c1.707,5.973,0.853,12.8-3.413,17.92
		c-4.267,5.12-10.24,8.533-17.067,8.533l0,0c-4.267,0-8.533-1.707-11.947-3.413l-55.467-38.4c-2.56-1.707-5.973-3.413-10.24-3.413
		c-6.827,0-13.653,4.267-15.36,10.24l-21.333,56.32C336.493,504.173,327.96,510.147,318.573,510.147z M278.467,372.76
		l34.987,116.053c0.853,3.413,4.267,3.413,5.12,3.413c0.853,0,4.267,0,5.12-3.413l23.04-56.32c5.12-12.8,17.92-20.48,31.573-20.48
		c6.827,0,13.653,2.56,19.627,5.973l55.467,38.4c0.853,0.853,1.707,0.853,2.56,0.853l0,0c0.853,0,2.56-0.853,3.413-1.707
		c0.853-0.853,0.853-1.707,0-2.56l-51.2-168.96C399.64,298.52,389.4,311.32,376.6,323.267
		C350.147,349.72,316.013,367.64,278.467,372.76z"/>
	<path d="M190.573,510.147L190.573,510.147c-9.387,0-17.067-5.12-21.333-13.653l-23.04-56.32c-2.56-5.973-8.533-10.24-15.36-10.24
		c-3.413,0-6.827,0.853-10.24,3.413l-55.467,38.4c-9.387,6.827-22.187,4.267-29.013-5.12c-3.413-5.12-5.12-11.947-3.413-17.92
		l57.173-189.44c2.56-4.267,5.973-6.827,9.387-6.827c3.413,0,6.827,1.707,8.533,5.12c7.68,17.92,18.773,34.133,33.28,48.64
		c27.307,29.867,63.147,47.787,102.4,50.347c2.56,0,5.12,1.707,6.827,3.413c1.707,2.56,1.707,5.12,0.853,7.68l-38.4,126.293
		C209.347,503.32,200.813,510.147,190.573,510.147z M130.84,412.013c13.653,0,26.453,8.533,31.573,20.48l23.04,56.32
		c0.853,2.56,4.267,3.413,5.12,3.413s4.267,0,5.12-3.413L230.68,372.76c-40.107-5.12-75.947-24.747-103.253-54.613
		c-10.24-10.24-18.773-21.333-26.453-34.133l-51.2,168.96c0,0.853,0,1.707,0,2.56c0.853,1.707,3.413,2.56,5.973,0.853l55.467-38.4
		C117.187,414.573,124.013,412.013,130.84,412.013z"/>
	<path d="M49.773,84.333c-5.12,0-8.533-3.413-8.533-8.533c0-14.507-11.093-25.6-25.6-25.6c-5.12,0-8.533-3.413-8.533-8.533
		s3.413-8.533,8.533-8.533c14.507,0,25.6-11.093,25.6-25.6C41.24,2.413,44.653-1,49.773-1s8.533,3.413,8.533,8.533
		c0,14.507,11.093,25.6,25.6,25.6c5.12,0,8.533,3.413,8.533,8.533S89.027,50.2,83.907,50.2c-14.507,0-25.6,11.093-25.6,25.6
		C58.307,80.92,54.893,84.333,49.773,84.333z M41.24,41.667c3.413,2.56,5.973,5.12,8.533,8.533c2.56-3.413,5.12-5.973,8.533-8.533
		c-3.413-2.56-5.973-5.12-8.533-8.533C47.213,36.547,44.653,39.107,41.24,41.667z"/>
	<path d="M467.907,169.667c-5.12,0-8.533-3.413-8.533-8.533V127c0-5.12,3.413-8.533,8.533-8.533c5.12,0,8.533,3.413,8.533,8.533
		v34.133C476.44,166.253,473.027,169.667,467.907,169.667z"/>
	<path d="M484.973,152.6H450.84c-5.12,0-8.533-3.413-8.533-8.533c0-5.12,3.413-8.533,8.533-8.533h34.133
		c5.12,0,8.533,3.413,8.533,8.533C493.507,149.187,490.093,152.6,484.973,152.6z"/>
	<path d="M32.707,220.867c0,5.12-3.413,8.533-8.533,8.533s-8.533-3.413-8.533-8.533c0-5.12,3.413-8.533,8.533-8.533
		S32.707,215.747,32.707,220.867"/>
	<path d="M254.573,331.8c-70.827,0-128-57.173-128-128s57.173-128,128-128s128,57.173,128,128S325.4,331.8,254.573,331.8z
		 M254.573,92.867c-61.44,0-110.933,49.493-110.933,110.933s49.493,110.933,110.933,110.933S365.507,265.24,365.507,203.8
		S316.013,92.867,254.573,92.867z"/>
	<path d="M254.573,272.92c-23.893,0-42.667-18.773-42.667-42.667c0-5.12,3.413-8.533,8.533-8.533s8.533,3.413,8.533,8.533
		c0,14.507,11.093,25.6,25.6,25.6c7.68,0,14.507-3.413,19.627-9.387c2.56-2.56,3.413-5.973,2.56-9.387
		c0-3.413-2.56-6.827-5.12-9.387l-44.373-34.987c-6.827-5.12-11.093-12.8-11.947-21.333c-0.853-8.533,1.707-16.213,6.827-22.187
		c8.533-9.387,19.627-15.36,32.427-15.36c23.893,0,42.667,18.773,42.667,42.667c0,5.12-3.413,8.533-8.533,8.533
		s-8.533-3.413-8.533-8.533c0-14.507-11.093-25.6-25.6-25.6c-7.68,0-14.507,3.413-19.627,9.387c-2.56,2.56-3.413,5.973-2.56,9.387
		c0,3.413,2.56,6.827,5.12,9.387l44.373,34.987c6.827,5.12,11.093,12.8,11.947,21.333c0.853,8.533-1.707,16.213-6.827,22.187
		C279.32,266.947,267.373,272.92,254.573,272.92z"/>
	<path d="M254.573,289.133L254.573,289.133c-5.12,0-8.533-4.267-8.533-8.533v-44.373V127c0-5.12,3.413-8.533,8.533-8.533l0,0
		c5.12,0,8.533,3.413,8.533,8.533v109.227V280.6C263.107,285.72,258.84,289.133,254.573,289.133z"/>
</g>
</svg>