<svg xmlns="http://www.w3.org/2000/svg" xmlns:xlink="http://www.w3.org/1999/xlink" version="1.1" width="256" height="256" viewBox="0 0 256 256" xml:space="preserve">

<defs>
</defs>
<g style="stroke: none; stroke-width: 0; stroke-dasharray: none; stroke-linecap: butt; stroke-linejoin: miter; stroke-miterlimit: 10; fill: none; fill-rule: nonzero; opacity: 1;" transform="translate(1.4065934065934016 1.4065934065934016) scale(2.81 2.81)" >
	<path d="M 25.44 61.276 c -0.631 1.554 0.017 3.348 1.514 4.105 c 11.516 5.826 25.37 16.283 30.68 16.283 c 0.275 0.021 0.55 0.03 0.825 0.03 c 2.403 0 4.777 -0.742 7.08 -1.461 c 2.528 -0.79 5.14 -1.606 7.729 -1.413 l 6.413 0.478 V 59.613 l -3.496 -0.261 c -2.166 -0.164 -3.988 0.547 -5.742 1.235 c -1.642 0.643 -3.191 1.248 -4.972 1.128 l -11.45 -1.747 c -4.109 -0.592 -6.37 1.396 -7.747 3.218 l -17.12 -3.859 C 27.605 58.984 26.037 59.808 25.44 61.276 L 25.44 61.276 z" style="stroke: none; stroke-width: 1; stroke-dasharray: none; stroke-linecap: butt; stroke-linejoin: miter; stroke-miterlimit: 10; fill: rgb(238,198,179); fill-rule: nonzero; opacity: 1;" transform=" matrix(1 0 0 1 0 0) " stroke-linecap="round" />
	<path d="M 65.826 69.916 c -6.442 0.915 -14.182 -1.598 -18.915 -4.448 c -0.782 -0.471 -1.062 -1.472 -0.639 -2.282 l 0 0 C 47.095 65.578 58.986 68.759 65.826 69.916 z" style="stroke: none; stroke-width: 1; stroke-dasharray: none; stroke-linecap: butt; stroke-linejoin: miter; stroke-miterlimit: 10; fill: rgb(205,149,123); fill-rule: nonzero; opacity: 1;" transform=" matrix(1 0 0 1 0 0) " stroke-linecap="round" />
	<path d="M 27.015 63.002 c 11.919 5.826 26.258 16.283 31.753 16.283 c 0.285 0.021 0.57 0.03 0.854 0.03 c 2.487 0 4.944 -0.742 7.328 -1.461 c 2.616 -0.79 5.32 -1.606 7.999 -1.413 l 4.731 0.341 v 2.517 l -6.413 -0.478 c -2.589 -0.193 -5.201 0.623 -7.729 1.413 c -2.303 0.719 -4.677 1.461 -7.08 1.461 c -0.274 0 -0.55 -0.01 -0.825 -0.03 c -5.31 0 -19.163 -10.457 -30.68 -16.283 c -1.489 -0.753 -2.135 -2.531 -1.521 -4.079 C 25.719 62.016 26.261 62.633 27.015 63.002 z" style="stroke: none; stroke-width: 1; stroke-dasharray: none; stroke-linecap: butt; stroke-linejoin: miter; stroke-miterlimit: 10; fill: rgb(205,149,123); fill-rule: nonzero; opacity: 1;" transform=" matrix(1 0 0 1 0 0) " stroke-linecap="round" />
	<path d="M 78.408 82.289 h 9.582 c 1.11 0 2.01 -0.9 2.01 -2.009 V 56.521 c 0 -1.11 -0.9 -2.01 -2.01 -2.01 h -9.582 c -1.11 0 -2.01 0.9 -2.01 2.01 v 23.759 C 76.399 81.389 77.298 82.289 78.408 82.289 z" style="stroke: none; stroke-width: 1; stroke-dasharray: none; stroke-linecap: butt; stroke-linejoin: miter; stroke-miterlimit: 10; fill: rgb(52,57,54); fill-rule: nonzero; opacity: 1;" transform=" matrix(1 0 0 1 0 0) " stroke-linecap="round" />
	<path d="M 78.408 54.511 h 0.988 c -0.008 0.075 -0.023 0.148 -0.023 0.225 v 23.759 c 0 1.11 0.9 2.009 2.009 2.009 h 8.595 c -0.113 1.003 -0.954 1.785 -1.987 1.785 h -9.582 c -1.11 0 -2.009 -0.9 -2.009 -2.009 V 56.521 C 76.399 55.411 77.298 54.511 78.408 54.511 z" style="stroke: none; stroke-width: 1; stroke-dasharray: none; stroke-linecap: butt; stroke-linejoin: miter; stroke-miterlimit: 10; fill: rgb(46,50,47); fill-rule: nonzero; opacity: 1;" transform=" matrix(1 0 0 1 0 0) " stroke-linecap="round" />
	<path d="M 43.727 26.814 l 17.12 3.859 c 1.547 0.343 3.115 -0.481 3.712 -1.949 v 0 c 0.631 -1.554 -0.017 -3.348 -1.514 -4.105 C 51.53 18.793 37.676 8.336 32.366 8.336 c -0.275 -0.021 -0.55 -0.03 -0.825 -0.03 c -2.403 0 -4.777 0.742 -7.08 1.461 c -2.528 0.79 -5.14 1.606 -7.729 1.413 l -6.413 -0.478 l 0 15.797 C 21.213 24.16 32.334 24.117 43.727 26.814 z" style="stroke: none; stroke-width: 1; stroke-dasharray: none; stroke-linecap: butt; stroke-linejoin: miter; stroke-miterlimit: 10; fill: rgb(238,198,179); fill-rule: nonzero; opacity: 1;" transform=" matrix(1 0 0 1 0 0) " stroke-linecap="round" />
	<path d="M 62.985 26.998 c -11.919 -5.826 -26.258 -16.283 -31.753 -16.283 c -0.285 -0.021 -0.57 -0.03 -0.854 -0.03 c -2.487 0 -4.944 0.742 -7.328 1.461 c -2.616 0.79 -5.32 1.606 -7.999 1.413 l -4.731 -0.341 v -2.517 l 6.413 0.478 c 2.589 0.193 5.201 -0.623 7.729 -1.413 c 2.303 -0.719 4.677 -1.461 7.08 -1.461 c 0.274 0 0.55 0.01 0.825 0.03 c 5.31 0 19.163 10.457 30.68 16.283 c 1.489 0.753 2.135 2.531 1.521 4.079 C 64.281 27.984 63.739 27.367 62.985 26.998 z" style="stroke: none; stroke-width: 1; stroke-dasharray: none; stroke-linecap: butt; stroke-linejoin: miter; stroke-miterlimit: 10; fill: rgb(205,149,123); fill-rule: nonzero; opacity: 1;" transform=" matrix(1 0 0 1 0 0) " stroke-linecap="round" />
	<path d="M 68.77 39.759 L 25.253 47.89 c -0.802 0.15 -1.574 -0.379 -1.724 -1.181 l -3.918 -20.967 c -0.15 -0.802 0.379 -1.574 1.181 -1.724 l 43.517 -8.132 c 0.802 -0.15 1.574 0.379 1.724 1.181 l 3.918 20.967 C 70.101 38.837 69.572 39.609 68.77 39.759 z" style="stroke: none; stroke-width: 1; stroke-dasharray: none; stroke-linecap: butt; stroke-linejoin: miter; stroke-miterlimit: 10; fill: rgb(49,139,54); fill-rule: nonzero; opacity: 1;" transform=" matrix(1 0 0 1 0 0) " stroke-linecap="round" />
	<path d="M 60.009 18.744 l -34.168 6.385 c 0.446 2.389 -1.128 4.687 -3.517 5.133 l 2.107 11.278 c 2.389 -0.446 4.687 1.128 5.133 3.517 l 34.168 -6.385 c -0.009 -0.043 -0.023 -0.084 -0.031 -0.128 c -0.446 -2.389 1.128 -4.687 3.517 -5.133 l -2.107 -11.278 C 62.766 22.571 60.513 21.059 60.009 18.744 z" style="stroke: none; stroke-width: 1; stroke-dasharray: none; stroke-linecap: butt; stroke-linejoin: miter; stroke-miterlimit: 10; fill: rgb(59,158,65); fill-rule: nonzero; opacity: 1;" transform=" matrix(1 0 0 1 0 0) " stroke-linecap="round" />
	<circle cx="22.792" cy="26.772000000000002" r="1.102" style="stroke: none; stroke-width: 1; stroke-dasharray: none; stroke-linecap: butt; stroke-linejoin: miter; stroke-miterlimit: 10; fill: rgb(59,158,65); fill-rule: nonzero; opacity: 1;" transform="  matrix(1 0 0 1 0 0) "/>
	<circle cx="26.122" cy="44.581999999999994" r="1.102" style="stroke: none; stroke-width: 1; stroke-dasharray: none; stroke-linecap: butt; stroke-linejoin: miter; stroke-miterlimit: 10; fill: rgb(59,158,65); fill-rule: nonzero; opacity: 1;" transform="  matrix(1 0 0 1 0 0) "/>
	<circle cx="63.442" cy="19.202" r="1.102" style="stroke: none; stroke-width: 1; stroke-dasharray: none; stroke-linecap: butt; stroke-linejoin: miter; stroke-miterlimit: 10; fill: rgb(59,158,65); fill-rule: nonzero; opacity: 1;" transform="  matrix(1 0 0 1 0 0) "/>
	<circle cx="66.772" cy="37.01199999999999" r="1.102" style="stroke: none; stroke-width: 1; stroke-dasharray: none; stroke-linecap: butt; stroke-linejoin: miter; stroke-miterlimit: 10; fill: rgb(59,158,65); fill-rule: nonzero; opacity: 1;" transform="  matrix(1 0 0 1 0 0) "/>
	<circle cx="44.778" cy="31.887999999999998" r="8.658" style="stroke: none; stroke-width: 1; stroke-dasharray: none; stroke-linecap: butt; stroke-linejoin: miter; stroke-miterlimit: 10; fill: rgb(49,139,54); fill-rule: nonzero; opacity: 1;" transform="  matrix(1 0 0 1 0 0) "/>
	<path d="M 47.807 32.196 c -0.656 -0.899 -1.909 -1.137 -2.927 -1.244 c -1.222 -0.129 -1.527 -0.38 -1.602 -0.482 c -0.049 -0.066 -0.055 -0.188 -0.025 -0.333 c 0.101 -0.418 0.555 -0.781 1.105 -0.884 c 0.395 -0.074 0.794 -0.004 1.077 0.172 c 0.209 0.13 0.478 0.112 0.68 -0.028 l 0.531 -0.368 c 0.351 -0.243 0.378 -0.764 0.041 -1.026 c -0.513 -0.4 -1.168 -0.629 -1.866 -0.657 l -0.128 -0.684 c -0.065 -0.348 -0.4 -0.577 -0.747 -0.512 l -0.594 0.111 c -0.348 0.065 -0.577 0.4 -0.512 0.747 l 0.142 0.758 c -0.785 0.42 -1.366 1.116 -1.568 1.959 c -0.185 0.894 0.084 1.503 0.342 1.857 c 0.656 0.899 1.909 1.138 2.927 1.245 c 1.223 0.129 1.528 0.38 1.602 0.482 c 0.048 0.066 0.055 0.188 0.025 0.333 c -0.101 0.418 -0.555 0.781 -1.105 0.884 c -0.396 0.074 -0.793 0.004 -1.077 -0.172 c -0.209 -0.13 -0.477 -0.112 -0.68 0.028 l -0.531 0.368 c -0.354 0.246 -0.374 0.769 -0.034 1.034 c 0.477 0.371 1.076 0.596 1.718 0.646 l 0.133 0.712 c 0.065 0.348 0.4 0.577 0.747 0.512 l 0.594 -0.111 c 0.348 -0.065 0.577 -0.4 0.512 -0.747 l -0.133 -0.712 c 0.851 -0.41 1.481 -1.14 1.695 -2.03 C 48.334 33.159 48.065 32.55 47.807 32.196 z" style="stroke: none; stroke-width: 1; stroke-dasharray: none; stroke-linecap: butt; stroke-linejoin: miter; stroke-miterlimit: 10; fill: rgb(59,158,65); fill-rule: nonzero; opacity: 1;" transform=" matrix(1 0 0 1 0 0) " stroke-linecap="round" />
	<path d="M 33.659 34.901 l -4.24 0.792 c -0.499 0.093 -0.978 -0.235 -1.071 -0.734 l 0 0 c -0.093 -0.499 0.235 -0.978 0.734 -1.071 l 4.24 -0.792 c 0.499 -0.093 0.978 0.235 1.071 0.734 v 0 C 34.486 34.329 34.158 34.808 33.659 34.901 z" style="stroke: none; stroke-width: 1; stroke-dasharray: none; stroke-linecap: butt; stroke-linejoin: miter; stroke-miterlimit: 10; fill: rgb(49,139,54); fill-rule: nonzero; opacity: 1;" transform=" matrix(1 0 0 1 0 0) " stroke-linecap="round" />
	<path d="M 60.481 29.889 l -4.24 0.792 c -0.499 0.093 -0.978 -0.235 -1.071 -0.734 v 0 c -0.093 -0.499 0.235 -0.978 0.734 -1.071 l 4.24 -0.792 c 0.499 -0.093 0.978 0.235 1.071 0.734 v 0 C 61.308 29.317 60.979 29.796 60.481 29.889 z" style="stroke: none; stroke-width: 1; stroke-dasharray: none; stroke-linecap: butt; stroke-linejoin: miter; stroke-miterlimit: 10; fill: rgb(49,139,54); fill-rule: nonzero; opacity: 1;" transform=" matrix(1 0 0 1 0 0) " stroke-linecap="round" />
	<path d="M 42.646 34.971 c -1.83 1.367 -4.554 2.647 -8.337 0.936 l -10.512 -4.862 c -1.677 -0.611 -3.334 -0.461 -5.09 -0.299 c -1.876 0.172 -3.824 0.349 -5.859 -0.411 l -3.286 -1.223 l 2.387 -8.245 C 23.677 19.248 41.117 30.351 42.646 34.971 z" style="stroke: none; stroke-width: 1; stroke-dasharray: none; stroke-linecap: butt; stroke-linejoin: miter; stroke-miterlimit: 10; fill: rgb(238,198,179); fill-rule: nonzero; opacity: 1;" transform=" matrix(1 0 0 1 0 0) " stroke-linecap="round" />
	<path d="M 25.735 23.069 c 6.442 0.912 13.179 5.479 16.932 9.533 c 0.62 0.67 0.61 1.709 -0.021 2.37 l 0 0 C 42.521 32.445 31.984 26.082 25.735 23.069 z" style="stroke: none; stroke-width: 1; stroke-dasharray: none; stroke-linecap: butt; stroke-linejoin: miter; stroke-miterlimit: 10; fill: rgb(205,149,123); fill-rule: nonzero; opacity: 1;" transform=" matrix(1 0 0 1 0 0) " stroke-linecap="round" />
	<path d="M 11.592 7.711 H 2.01 C 0.9 7.711 0 8.611 0 9.721 v 23.759 c 0 1.11 0.9 2.01 2.01 2.01 h 9.582 c 1.11 0 2.01 -0.9 2.01 -2.01 V 9.721 C 13.601 8.611 12.702 7.711 11.592 7.711 z" style="stroke: none; stroke-width: 1; stroke-dasharray: none; stroke-linecap: butt; stroke-linejoin: miter; stroke-miterlimit: 10; fill: rgb(52,57,54); fill-rule: nonzero; opacity: 1;" transform=" matrix(1 0 0 1 0 0) " stroke-linecap="round" />
	<path d="M 11.592 35.489 h -0.988 c 0.008 -0.075 0.023 -0.148 0.023 -0.225 V 11.505 c 0 -1.11 -0.9 -2.009 -2.009 -2.009 H 0.023 C 0.136 8.493 0.977 7.711 2.01 7.711 h 9.582 c 1.11 0 2.009 0.9 2.009 2.009 v 23.759 C 13.601 34.589 12.702 35.489 11.592 35.489 z" style="stroke: none; stroke-width: 1; stroke-dasharray: none; stroke-linecap: butt; stroke-linejoin: miter; stroke-miterlimit: 10; fill: rgb(46,50,47); fill-rule: nonzero; opacity: 1;" transform=" matrix(1 0 0 1 0 0) " stroke-linecap="round" />
</g>
</svg>