<svg xmlns="http://www.w3.org/2000/svg" xmlns:xlink="http://www.w3.org/1999/xlink" width="26" height="26" id="round"><defs><linearGradient id="b" x1="1073.403" x2="1097.116" y1="516.451" y2="544.308" gradientTransform="translate(-834.007 625.151) scale(.78112)" gradientUnits="userSpaceOnUse" xlink:href="#a"></linearGradient><linearGradient id="a"><stop offset="0" stop-color="#16ff6a"></stop><stop offset="1" stop-color="#0090a5"></stop></linearGradient></defs><g transform="translate(-1.03 -1096.225) scale(1.06642)"><rect width="24.381" height="24.381" x=".965" y="1027.95" fill="url(#b)" rx="5.152" ry="5.152"></rect><path fill="#fff" style="line-height:normal;text-indent:0;text-align:start;text-decoration-line:none;text-decoration-style:solid;text-decoration-color:#000;text-transform:none;block-progression:tb;isolation:auto;mix-blend-mode:normal;marker:none" d="M7.528 1038.265a1.88 1.88 0 0 0-1.874 1.876c0 1.03.843 1.875 1.874 1.875 1.03 0 1.877-.845 1.877-1.875s-.847-1.876-1.877-1.876zm5.628 0c-1.03 0-1.876.845-1.876 1.876 0 1.03.845 1.875 1.876 1.875 1.03 0 1.875-.845 1.875-1.875s-.845-1.876-1.875-1.876zm5.626 0c-1.03 0-1.875.845-1.875 1.876 0 1.03.845 1.875 1.875 1.875s1.875-.845 1.875-1.875-.845-1.876-1.875-1.876z" color="#000" font-family="sans-serif" font-weight="400" overflow="visible"></path></g></svg>