<?xml version="1.0" encoding="utf-8"?>

<!-- Uploaded to: SVG Repo, www.svgrepo.com, Generator: SVG Repo Mixer Tools -->
<svg version="1.1" id="Uploaded to svgrepo.com" xmlns="http://www.w3.org/2000/svg" xmlns:xlink="http://www.w3.org/1999/xlink" 
	 width="800px" height="800px" viewBox="0 0 32 32" xml:space="preserve">
<g>
	<path class="avocado_zes" d="M16,25.5c-10.574,0-14.803-7.268-15.453-8.521C1.152,15.535,5.368,6.5,16,6.5
		s14.848,9.035,15.453,10.479C30.803,18.232,26.574,25.5,16,25.5z"/>
	<path class="avocado_negen" d="M16,22.5c-4.687,0-8.5-3.813-8.5-8.5c0-2.632,1.193-5.067,3.277-6.694
		C12.419,6.771,14.176,6.5,16,6.5s3.581,0.271,5.223,0.806C23.307,8.933,24.5,11.368,24.5,14C24.5,18.687,20.687,22.5,16,22.5z"/>
	<path class="avocado_een" d="M11,14c0-2.761,2.239-5,5-5s5,2.239,5,5s-2.239,5-5,5S11,16.761,11,14z M32,17c0,0-4,9-16,9
		S0,17,0,17S2.756,9.44,10.539,6.858l0,0c0,0,0,0,0,0C12.142,6.326,13.952,6,16,6c2.048,0,3.858,0.326,5.46,0.857
		c0,0,0.001,0,0.001,0l0,0C29.244,9.44,32,17,32,17z M8,14c0,4.411,3.589,8,8,8s8-3.589,8-8c0-2.448-1.097-4.715-3.016-6.246
		C19.547,7.281,17.811,7,16,7c-1.86,0-3.518,0.284-4.988,0.758C9.096,9.289,8,11.554,8,14z M30.904,16.956
		c-0.582-1.354-2.821-5.816-7.673-8.28C24.335,10.167,25,12.001,25,14c0,4.971-4.029,9-9,9s-9-4.029-9-9
		c0-1.978,0.652-3.794,1.735-5.277c-4.79,2.481-7.053,6.915-7.637,8.238C1.977,18.599,6.051,25,16,25
		C25.955,25,30.027,18.591,30.904,16.956z"/>
	<circle class="avocado_zes" cx="12" cy="12" r="2"/>
</g>
</svg>